<?xml version="1.0" standalone="no"?>
<!DOCTYPE svg PUBLIC "-//W3C//DTD SVG 20010904//EN"
 "http://www.w3.org/TR/2001/REC-SVG-20010904/DTD/svg10.dtd">
<svg version="1.0" xmlns="http://www.w3.org/2000/svg"
 width="735.000000pt" height="731.000000pt" viewBox="0 0 735.000000 731.000000"
 preserveAspectRatio="xMidYMid meet">

<g transform="translate(0.000000,731.000000) scale(0.100000,-0.100000)"
fill="#000000" stroke="none">
<path d="M3485 6263 c-96 -7 -266 -33 -382 -59 -997 -222 -1776 -1013 -1982
-2012 -58 -279 -67 -665 -22 -931 74 -431 239 -822 489 -1153 438 -580 1084
-948 1804 -1027 124 -14 420 -14 546 0 391 42 799 185 1132 397 309 196 646
542 825 847 187 318 310 677 356 1040 16 130 17 472 0 600 -123 975 -754 1788
-1654 2131 -345 132 -746 192 -1112 167z m472 -258 c918 -121 1660 -734 1949
-1612 79 -241 114 -463 114 -732 0 -984 -615 -1862 -1545 -2206 -554 -205
-1187 -187 -1739 50 -681 292 -1189 898 -1359 1620 -46 194 -61 324 -61 535
-1 274 34 496 115 742 287 867 1032 1481 1944 1603 141 18 438 18 582 0z"/>
<path d="M3523 5685 c-415 -75 -721 -417 -752 -839 -18 -252 51 -499 179 -639
110 -120 280 -166 437 -119 177 54 319 204 410 432 123 309 189 654 163 847
-25 190 -96 286 -237 319 -70 16 -106 16 -200 -1z"/>
<path d="M4547 5386 c-160 -59 -316 -290 -430 -636 -125 -375 -136 -595 -41
-788 124 -252 399 -326 653 -175 134 80 291 253 370 410 134 268 117 607 -46
885 -63 109 -195 243 -278 283 -70 35 -167 44 -228 21z"/>
<path d="M2158 5026 c-109 -39 -209 -149 -335 -369 -72 -127 -133 -276 -159
-392 -28 -120 -25 -298 4 -395 35 -113 86 -196 171 -280 120 -119 260 -183
401 -184 65 0 82 4 129 29 215 118 307 513 231 990 -48 300 -163 530 -295 591
-56 27 -93 29 -147 10z"/>
<path d="M5415 4026 c-152 -50 -355 -210 -510 -404 -151 -187 -242 -352 -292
-525 -21 -74 -25 -104 -21 -185 3 -84 8 -104 33 -150 33 -61 67 -92 136 -128
70 -35 161 -54 265 -54 364 0 628 262 709 705 22 120 31 411 16 501 -17 98
-63 188 -113 222 -34 22 -54 27 -112 29 -39 2 -89 -3 -111 -11z"/>
<path d="M3414 3905 c-113 -24 -205 -81 -414 -255 -195 -161 -276 -213 -490
-313 -181 -85 -288 -177 -368 -318 -230 -408 -32 -925 413 -1074 67 -23 107
-29 245 -35 164 -9 261 -24 356 -56 81 -27 188 -79 253 -124 261 -176 559
-187 829 -29 31 19 94 71 139 116 66 66 90 99 127 175 65 131 81 199 81 343
-1 175 -35 278 -162 471 -77 119 -131 247 -204 481 -97 316 -156 420 -288 508
-80 52 -166 87 -274 109 -90 19 -160 19 -243 1z"/>
</g>
</svg>
